<?xml version="1.0" encoding="utf-8"?>
<!-- Generator: Adobe Illustrator 25.1.0, SVG Export Plug-In . SVG Version: 6.00 Build 0)  -->
<svg version="1.1" id="Layer_1" xmlns="http://www.w3.org/2000/svg" xmlns:xlink="http://www.w3.org/1999/xlink" x="0px" y="0px"
	 viewBox="0 0 655 117.01" style="enable-background:new 0 0 655 117.01;" xml:space="preserve">
<style type="text/css">
	.st0{fill:#BF2A39;}
	.st1{fill:#EB3B47;}
	.st2{fill:#0C0C0C;}
	.st3{fill:#334DBC;}
	.st4{fill:#CC3644;}
	.st5{fill:#2B40BC;}
</style>
<path class="st4" d="M274.48,45.68c-0.33,8.64-1.78,16.95-7.36,23.96c-1.43,1.8-1.12,2.8,0.8,3.81c2.51,1.32,4.96,2.74,7.38,4.22
	c2.38,1.46,3.66,3.47,2.3,6.3c-1.35,2.81-3.94,3.12-6.43,2.33c-3.83-1.22-7.31-3.34-10.44-5.84c-2.37-1.9-4.45-1.98-7.28-0.99
	c-15.14,5.33-31.33,1.1-40.44-10.3c-14.93-18.69-6.38-52.08,15.38-58.21C252.22,4.25,274.69,16.57,274.48,45.68z M247.46,68.84
	c-3.5-1.93-6.11-3.34-8.67-4.81c-1.83-1.05-3.37-2.37-2.41-4.8c0.93-2.37,2.98-2.48,5.04-2.1c3.71,0.68,6.88,2.66,9.76,4.9
	c2.88,2.23,4.4,1.32,5.65-1.53c4.53-10.38,4.75-20.83-0.45-30.93c-3.34-6.49-9.31-9.34-16.6-9.25c-7.3,0.09-12.91,3.23-16.04,9.89
	c-4.58,9.75-4.67,19.78-0.27,29.56C227.56,68.85,236.77,72.41,247.46,68.84z"/>
<path class="st1" d="M470.7,58.84c0-13.68-0.02-25.96,0.02-38.25c0.01-2.16,0.1-4.35,0.49-6.46c0.55-2.98,2.57-4.65,5.59-4.83
	c3.25-0.19,5.49,1.42,6.43,4.47c0.48,1.55,0.54,3.28,0.54,4.92c0.04,17.37,0.03,34.74,0.02,52.1c0,4.26,0,8.69-5.1,10.26
	c-5.04,1.55-8.79-0.77-11.49-4.88c-8.52-12.95-16.95-25.95-25.43-38.92c-0.7-1.07-1.52-2.06-3.07-4.15
	c0,12.79,0.02,24.37-0.02,35.94c-0.01,2.33-0.01,4.7-0.4,6.98c-0.61,3.64-3.04,5.55-6.7,5.37c-3.72-0.19-5.67-2.47-6.02-6.13
	c-0.08-0.83-0.1-1.67-0.1-2.5c0-17.87,0.07-35.74-0.03-53.61c-0.03-4.71,1.42-8.21,6.21-9.56c4.68-1.32,7.53,1.25,9.88,4.88
	c8.52,13.15,17.09,26.28,25.65,39.4C468.04,55.21,469.01,56.47,470.7,58.84z"/>
<path class="st4" d="M118.41,32.85c0,12.65,0,23.91,0,35.18c0,2.17,0.09,4.36-0.11,6.51c-0.4,4.52-3.09,7.19-6.96,6.94
	c-4.39-0.29-6.06-3.22-6.12-7.13c-0.14-9.02-0.09-18.05-0.1-27.07c-0.01-9.36,0.01-18.72,0.02-28.07c0.01-3.86,0.57-7.93,4.87-8.85
	c4.36-0.93,8.5-0.58,11.53,4.34c8.97,14.56,18.5,28.78,28.9,43.01c0-2.02,0-4.03,0-6.05c0.01-11.36,0.02-22.73,0.03-34.09
	c0-3.34,0.65-6.42,4.12-7.89c4.59-1.94,8.8,1.53,8.87,7.54c0.13,10.69,0.04,21.39,0.04,32.08c0,7.35,0.05,14.71-0.01,22.06
	c-0.03,4.11-0.28,8.38-5.12,9.8c-4.76,1.39-8.55-0.61-11.18-4.62c-8.35-12.69-16.62-25.43-24.94-38.15
	C121.29,36.91,120.24,35.49,118.41,32.85z"/>
<path class="st4" d="M359.96,45.67c-0.01-8.52-0.04-17.03,0-25.55c0.03-6.43,2.28-8.78,8.78-8.83c12.2-0.09,24.4-0.02,36.6-0.03
	c3.96,0,7.26,1.22,7.11,5.77c-0.14,4.19-3.27,5.33-7.07,5.31c-9.19-0.06-18.39,0.07-27.58-0.07c-2.73-0.04-3.71,0.65-3.8,3.59
	c-0.36,12.51-0.46,12.51,11.88,12.51c5.68,0,11.37-0.01,17.05,0c3.75,0.01,6.73,1.09,6.71,5.55c-0.02,4.48-3.12,5.47-6.79,5.49
	c-8.36,0.05-16.72,0.11-25.07-0.04c-2.79-0.05-3.91,0.75-3.77,3.64c0.2,4.17,0.22,8.36,0.02,12.52c-0.15,3.02,0.84,4.05,3.95,3.98
	c8.85-0.19,17.71-0.08,26.57-0.08c1.17,0,2.36-0.14,3.5,0.05c3.29,0.53,5.57,2.32,5.49,5.85c-0.08,3.47-2.54,5.08-5.67,5.11
	c-13.54,0.12-27.08,0.17-40.61-0.01c-5.03-0.06-7.23-2.75-7.29-8.22C359.9,63.37,359.97,54.52,359.96,45.67z"/>
<path class="st1" d="M499.66,45.51c0-8.52-0.06-17.04,0.02-25.55c0.06-6.31,2.19-8.6,8.32-8.65c12.37-0.1,24.74,0,37.1-0.05
	c3.88-0.02,6.7,1.67,6.87,5.53c0.18,4.21-2.9,5.56-6.75,5.55c-9.19-0.04-18.39,0.11-27.58-0.08c-3.08-0.07-3.93,0.83-3.98,3.92
	c-0.18,12.19-0.3,12.19,11.68,12.19c5.85,0,11.7,0,17.55,0.01c3.68,0,6.31,1.45,6.34,5.45c0.03,3.97-2.58,5.55-6.23,5.57
	c-8.36,0.05-16.72,0.16-25.07-0.03c-3.24-0.07-4.49,0.84-4.26,4.2c0.27,3.99,0.25,8.02,0.01,12.02c-0.19,3.13,0.97,3.99,3.99,3.94
	c9.36-0.17,18.72-0.03,28.08-0.08c2.25-0.01,4.46,0.26,6.02,1.89c1.45,1.51,2.07,3.63,0.97,5.56c-1.14,1.99-2.84,3.61-5.42,3.61
	c-13.54,0.01-27.08,0.1-40.61-0.06c-4.53-0.05-7.03-2.66-7.02-7.37c0.02-9.19,0-18.37,0-27.56
	C499.68,45.51,499.67,45.51,499.66,45.51z"/>
<path class="st4" d="M286.79,37.18c0-6.35-0.08-12.7,0.02-19.05c0.09-5.99,2.58-8.97,7.13-8.87c4.48,0.1,6.95,3.18,6.99,9.15
	c0.08,10.53,0.03,21.06,0.04,31.59c0,1.84-0.01,3.68,0.07,5.51c0.46,10.23,5.08,14.87,14.82,14.95c9.77,0.08,14.85-4.44,15.19-14.57
	c0.4-11.85,0.14-23.73,0.18-35.59c0.01-1.67-0.09-3.37,0.2-5c0.67-3.74,2.87-6.05,6.83-5.99c3.85,0.06,6.23,2.19,6.88,5.96
	c0.31,1.79,0.22,3.67,0.22,5.5c0,10.53-0.3,21.07,0.01,31.58c0.69,23.39-14.42,31.36-34.56,28.7c-17.19-2.27-23.22-9.38-23.91-26.83
	c-0.22-5.67-0.04-11.36-0.04-17.04C286.84,37.18,286.81,37.18,286.79,37.18z"/>
<path class="st1" d="M579.44,49.67c0-7.19-0.16-14.38,0.07-21.57c0.12-3.6-0.77-5.24-4.71-4.85c-3.48,0.34-7.02,0.1-10.53,0.06
	c-3.93-0.04-7.06-1.3-7.16-5.86c-0.1-4.53,2.89-6.14,6.87-6.16c15.06-0.06,30.12-0.07,45.18,0c3.91,0.02,7.11,1.51,7.09,5.99
	c-0.02,4.44-3.14,5.92-7.09,6.01c-3.51,0.08-7.05,0.26-10.53-0.05c-3.72-0.32-4.91,0.9-4.85,4.71c0.22,13.2,0.11,26.41,0.07,39.62
	c-0.01,2.5-0.16,5.01-0.44,7.5c-0.47,4.09-2.83,6.43-6.99,6.33c-3.88-0.09-6.45-2.32-6.56-6.2c-0.23-8.51-0.07-17.03-0.07-25.55
	C579.65,49.67,579.55,49.67,579.44,49.67z"/>
<path class="st4" d="M193.9,45.68c0,9.02,0.05,18.03-0.03,27.05c-0.03,3.42-0.52,6.7-4.39,8.2c-3.83,1.48-7.47-0.01-8.97-3.82
	c-0.75-1.9-0.83-3.9-0.83-5.91c0.01-17.36,0.01-34.72,0.01-52.09c0-1-0.03-2.02,0.14-3c0.69-4.04,2.69-7.08,7.19-6.75
	c4.2,0.31,6.65,3.1,6.74,7.29c0.2,8.68,0.11,17.36,0.14,26.04c0,1,0,2,0,3.01C193.91,45.68,193.9,45.68,193.9,45.68z"/>
<g>
	<path class="st1" d="M600.34,48.93h11.84c2.34,0,4.08,0.1,5.24,0.3c1.15,0.2,2.19,0.6,3.1,1.22s1.67,1.44,2.26,2.47
		c0.61,1.03,0.91,2.19,0.91,3.47c0,1.38-0.36,2.66-1.11,3.82c-0.76,1.15-1.78,2.03-3.05,2.6c1.81,0.52,3.19,1.42,4.16,2.69
		c0.97,1.27,1.46,2.75,1.46,4.47c0,1.34-0.3,2.66-0.94,3.92c-0.62,1.27-1.47,2.29-2.56,3.05c-1.08,0.77-2.41,1.23-4.01,1.4
		c-1,0.11-3.4,0.17-7.21,0.2h-10.08V48.93z M606.32,53.86v6.84h3.91c2.32,0,3.78-0.03,4.34-0.1c1.02-0.12,1.84-0.48,2.41-1.06
		c0.59-0.58,0.88-1.36,0.88-2.31c0-0.91-0.26-1.65-0.76-2.23c-0.5-0.57-1.26-0.92-2.25-1.04c-0.59-0.07-2.31-0.1-5.11-0.1H606.32z
		 M606.32,65.64v7.91h5.52c2.15,0,3.52-0.06,4.11-0.18c0.88-0.16,1.61-0.55,2.17-1.18c0.55-0.63,0.83-1.46,0.83-2.52
		c0-0.89-0.21-1.64-0.65-2.26c-0.42-0.61-1.05-1.07-1.87-1.35c-0.82-0.28-2.58-0.42-5.3-0.42H606.32z"/>
	<path class="st1" d="M630.17,48.93h10.93c2.46,0,4.34,0.19,5.63,0.57c1.75,0.51,3.23,1.42,4.48,2.72c1.23,1.3,2.17,2.91,2.82,4.8
		c0.65,1.9,0.97,4.23,0.97,7c0,2.44-0.3,4.54-0.91,6.3c-0.74,2.15-1.79,3.89-3.17,5.23c-1.03,1.01-2.44,1.8-4.2,2.36
		c-1.32,0.42-3.08,0.63-5.3,0.63h-11.24V48.93z M636.15,53.95v19.61h4.46c1.67,0,2.88-0.09,3.61-0.28c0.97-0.24,1.78-0.65,2.41-1.23
		c0.65-0.58,1.17-1.53,1.58-2.86c0.39-1.33,0.61-3.13,0.61-5.42c0-2.28-0.21-4.04-0.61-5.27c-0.41-1.22-0.97-2.18-1.7-2.87
		c-0.73-0.68-1.65-1.15-2.78-1.39c-0.83-0.19-2.46-0.28-4.9-0.28H636.15z"/>
</g>
<circle class="st1" cx="15.4" cy="51.03" r="15.4"/>
<path class="st4" d="M80.35,0c-8.51,0-15.4,6.9-15.4,15.4h0v60.94c0,5.54-1.51,9.82-4.53,12.84c-3.02,3.02-7.19,4.53-12.51,4.53
	c-5.36,0-9.55-1.53-12.57-4.6c-3.02-3.06-4.53-7.32-4.53-12.77V51.03H0v23.89c0,4.9,0.95,10.53,2.86,16.89
	c1.19,3.95,3.38,7.79,6.58,11.51c3.2,3.72,6.73,6.6,10.59,8.62c3.86,2.02,8.67,3.37,14.41,4.05c5.75,0.68,11.05,1.02,15.91,1.02
	c8.4,0,15.61-1.11,21.6-3.33c4.31-1.59,8.44-4.35,12.37-8.28c3.93-3.93,6.81-8.51,8.65-13.76c1.84-5.24,2.76-10.81,2.76-16.72V15.4
	C95.75,6.9,88.85,0,80.35,0z"/>
<circle cx="15.4" cy="15.4" r="15.4"/>
<g>
	<path class="st1" d="M47.91,93.71c1.75,0.04,3.31-0.15,4.65-0.44C51.12,93.56,49.57,93.71,47.91,93.71z"/>
	<path class="st1" d="M62.89,85.83c-0.66,1.25-1.5,2.37-2.47,3.35c-0.76,0.75-1.59,1.41-2.49,1.98
		C60.28,89.8,61.85,87.86,62.89,85.83z"/>
	<path class="st1" d="M47.38,93.7c-1.48-0.02-2.86-0.17-4.16-0.44C45.61,93.79,47.38,93.7,47.38,93.7z"/>
	<path class="st1" d="M74.55,112.49c-36.01,0-40.37-24.69-40.37-24.69c0.2,0.25,0.4,0.49,0.61,0.72c-2.65-3.01-3.99-7.06-3.99-12.18
		V51.11c0-0.03,0-0.05,0-0.08c0-8.51-6.9-15.4-15.4-15.4C6.9,35.63,0,42.53,0,51.03c0,0,0,0,0,0h0v23.89
		c0,4.9,0.95,10.53,2.86,16.89c1.19,3.95,3.38,7.79,6.58,11.51c3.2,3.72,6.73,6.59,10.59,8.61c3.87,2.02,8.67,3.37,14.42,4.06
		c5.75,0.67,11.05,1.01,15.91,1.01c8.4,0,15.61-1.1,21.6-3.33c1.56-0.57,3.1-1.3,4.62-2.21C75.32,112.17,74.55,112.49,74.55,112.49z
		"/>
</g>
<circle cx="15.4" cy="15.4" r="15.4"/>
<path class="st5" d="M41.4,92.77c-1.73-0.54-3.25-1.35-4.6-2.4c0.38,0.29,0.76,0.56,1.15,0.8c0.02,0.01,0.04,0.03,0.06,0.04
	c0.54,0.33,1.09,0.62,1.64,0.87c0.01,0,0.01,0.01,0.02,0.01c0.36,0.16,0.71,0.3,1.05,0.43C40.94,92.61,41.17,92.69,41.4,92.77z"/>
<path class="st5" d="M36.1,89.81c0.22,0.2,0.47,0.38,0.7,0.56c-0.05-0.04-0.11-0.08-0.16-0.12C36.46,90.11,36.28,89.96,36.1,89.81z"
	/>
<path class="st5" d="M95.75,76.18c0,20.23-11.37,30.3-17.46,34.24c2.06-1.38,4.07-3.05,6.04-5.02c3.93-3.92,6.82-8.51,8.66-13.75
	c1.71-4.87,2.63-10.03,2.75-15.47H95.75z"/>
</svg>
